<?xml version="1.0" encoding="utf-8"?>
<!-- Generator: Adobe Illustrator 27.4.0, SVG Export Plug-In . SVG Version: 6.00 Build 0)  -->
<svg version="1.1" id="Layer_1" xmlns="http://www.w3.org/2000/svg" xmlns:xlink="http://www.w3.org/1999/xlink" x="0px" y="0px"
	 viewBox="0 0 24 24" style="enable-background:new 0 0 24 24;" xml:space="preserve">
<style type="text/css">
	.st0{fill:#FFFFFF;}
	.st1{fill:#2C8EFB;}
	.st2{fill:#2C8DFB;}
	.st3{fill:#231F20;}
</style>
<g>
	<path class="st1" d="M0.47,0h23.06C23.79,0,24,0.21,24,0.47v23.06c0,0.26-0.21,0.47-0.47,0.47H0.47C0.21,24,0,23.79,0,23.53V0.47
		C0,0.21,0.21,0,0.47,0z"/>
	<path id="Path_1-2_00000087391716793183368870000001908853349093932942_" class="st0" d="M10.67,9.43c0-0.5,0.41-0.81,1.17-0.81
		c1,0,1.61,0.5,1.75,1.35h4.24c-0.25-2.15-1.56-3.89-3.98-4.48v2.15h-1.01V5.31c-0.16-0.01-0.31-0.03-0.48-0.03v2.35h-1.01V5.28
		c-0.17,0.01-0.32,0.02-0.48,0.04v2.3H9.85V5.5c-2.3,0.6-3.5,2.19-3.5,4.04c0,4.94,7.14,3.33,7.14,5.3c0,0.48-0.46,0.87-1.24,0.87
		c-0.98,0-1.72-0.48-1.85-1.37H5.86c0.15,2.06,1.64,3.71,4,4.38v-1.99h1.01v2.21c0.16,0.02,0.31,0.04,0.48,0.06v-2.28h1.01v2.32
		c0.17,0,0.32-0.01,0.48-0.01v-2.3h1.01v2.16c2.53-0.46,4-2.03,4-3.99C17.84,9.81,10.67,11.35,10.67,9.43L10.67,9.43z"/>
</g>
</svg>
