<?xml version="1.0" encoding="utf-8"?>
<!-- Generator: Adobe Illustrator 27.4.0, SVG Export Plug-In . SVG Version: 6.00 Build 0)  -->
<svg version="1.1" id="Layer_1" xmlns="http://www.w3.org/2000/svg" xmlns:xlink="http://www.w3.org/1999/xlink" x="0px" y="0px"
	 viewBox="0 0 406.01 100" style="enable-background:new 0 0 406.01 100;" xml:space="preserve">
<style type="text/css">
	.st0{fill:#FFFFFF;}
	.st1{fill:#2C8EFB;}
	.st2{fill:#2C8DFB;}
	.st3{fill:#231F20;}
</style>
<g>
	<path class="st0" d="M86.5,11.78H1.73C0.77,11.78,0,12.54,0,13.5v84.77C0,99.23,0.77,100,1.73,100H86.5c0.96,0,1.73-0.77,1.73-1.73
		V13.5C88.22,12.54,87.46,11.78,86.5,11.78z M50.92,81.27v-7.94H47.2v8.44c-0.58,0-1.15,0.04-1.77,0.04v-8.52h-3.72v8.37
		c-0.61-0.08-1.19-0.15-1.77-0.23v-8.14h-3.72v7.33c-8.67-2.49-14.16-8.56-14.7-16.12h16.73c0.46,3.26,3.19,5.03,6.79,5.03
		c2.88,0,4.57-1.42,4.57-3.19c0-7.25-26.25-1.34-26.25-19.49c0-6.79,4.41-12.66,12.86-14.85v7.79h3.72v-8.44
		c0.58-0.08,1.15-0.12,1.77-0.15v8.63h3.72v-8.63c0.61,0,1.19,0.08,1.77,0.12v8.52h3.72v-7.91c8.9,2.15,13.7,8.56,14.62,16.46H49.96
		c-0.54-3.11-2.76-4.95-6.45-4.95c-2.8,0-4.3,1.15-4.3,2.99c0,7.06,26.36,1.42,26.4,20.19C65.62,73.83,60.21,79.58,50.92,81.27z"/>
	<g id="Group_39-2_00000120554611898710067430000002828686700082778255_">
		<path id="Path_2-2_00000023274453921012697580000007850877463252024499_" class="st0" d="M170.77,63.24
			c0,8.75-7.83,14.47-22.87,14.47c-9.36,0.31-18.57-2.38-26.29-7.71l7.02-8.14c5.72,3.95,12.55,6.02,19.49,5.87
			c5.79,0,8.63-1,8.63-3.03c0-2.03-2.3-2.69-9.86-3.3c-12.47-1.11-23.56-3.95-23.56-13.24s9.71-13.74,22.87-13.74
			c8.02-0.23,15.93,1.8,22.79,5.87l-6.72,8.25c-4.8-2.99-10.4-4.45-16.08-4.22c-4.11,0-8.86,0.54-8.86,2.72
			c0,1.96,3.65,2.38,10.21,2.92C161.14,51,170.77,53.6,170.77,63.24L170.77,63.24z"/>
		<path id="Path_3-2_00000117662913048200793500000000111211828925149881_" class="st0" d="M211.79,66.54h-26.06l-5.18,9.82h-7.56
			l22.03-40.64h7.68l21.95,40.64h-7.6L211.79,66.54L211.79,66.54z M208.72,60.63l-9.94-18.8l-9.94,18.8H208.72z"/>
		<path id="Path_4-2_00000179607016950433948560000015326593855618757802_" class="st0" d="M275.92,35.72v40.64h-6.14l-31.74-32.04
			v32.04h-6.72V35.72h7.41l30.39,30.82V35.72H275.92z"/>
		<path id="Path_5-2_00000082334559548584397600000007315743723487664793_" class="st0" d="M330.64,56.02
			c0,12.55-9.63,20.3-24.71,20.3h-20.61v-40.6h20.61C321.01,35.72,330.64,43.51,330.64,56.02z M323.5,56.02
			c0-9.4-7.41-14.2-18.11-14.2h-13.12v28.44h13.12C316.06,70.26,323.5,65.46,323.5,56.02L323.5,56.02z"/>
		<path id="Path_6-2_00000111906081280529077830000010823436495237908107_" class="st0" d="M383.63,63.24
			c0,8.75-7.83,14.47-22.87,14.47c-9.36,0.31-18.57-2.38-26.29-7.71l7.02-8.14c5.72,3.95,12.55,6.02,19.49,5.87
			c5.79,0,8.63-1,8.63-3.03c0-2.03-2.34-2.69-9.86-3.3c-12.47-1.11-23.56-3.95-23.56-13.24s9.67-13.74,22.87-13.74
			c7.98-0.23,15.93,1.8,22.79,5.87l-6.72,8.25c-4.84-2.99-10.4-4.45-16.08-4.22c-4.11,0-8.86,0.54-8.86,2.72
			c0,1.96,3.65,2.38,10.21,2.92C374,51,383.63,53.6,383.63,63.24L383.63,63.24z"/>
	</g>
	<g>
		<path class="st0" d="M395.34,6.87c0.42,0,0.81,0.08,1.15,0.19c0.35,0.12,0.65,0.35,0.88,0.58c0.23,0.23,0.42,0.54,0.58,0.84
			s0.19,0.65,0.19,1.04c0,0.58-0.12,1.07-0.35,1.46c-0.23,0.38-0.61,0.73-1.15,0.96v0.04c0.27,0.08,0.46,0.19,0.65,0.35
			s0.31,0.31,0.42,0.54c0.12,0.19,0.19,0.42,0.23,0.65s0.08,0.5,0.12,0.73c0,0.15,0.04,0.35,0.04,0.54c0,0.19,0.04,0.42,0.04,0.61
			c0.04,0.23,0.08,0.42,0.12,0.61c0.04,0.19,0.12,0.35,0.23,0.5h-2.11c-0.12-0.31-0.19-0.69-0.23-1.11
			c-0.04-0.42-0.08-0.84-0.12-1.23c-0.08-0.5-0.23-0.88-0.46-1.11c-0.23-0.23-0.61-0.35-1.15-0.35h-2.11v3.76h-2.11V6.87H395.34
			L395.34,6.87z M394.61,11.24c0.5,0,0.84-0.12,1.07-0.31s0.35-0.58,0.35-1.04s-0.12-0.81-0.35-1c-0.23-0.23-0.61-0.31-1.07-0.31
			h-2.34v2.72L394.61,11.24L394.61,11.24z"/>
		<path class="st0" d="M394.3,23.41c-6.45,0-11.7-5.26-11.7-11.7S387.86,0,394.3,0s11.7,5.26,11.7,11.7S400.75,23.41,394.3,23.41z
			 M394.3,0.92c-5.95,0-10.78,4.84-10.78,10.78s4.84,10.78,10.78,10.78s10.78-4.84,10.78-10.78S400.25,0.92,394.3,0.92z"/>
	</g>
</g>
</svg>
